<svg width="32" height="32" viewBox="0 0 32 32" fill="none" xmlns="http://www.w3.org/2000/svg">
<path fill-rule="evenodd" clip-rule="evenodd" d="M1.77778 0C0.795947 0 0 1.02336 0 2.28571C0 3.54807 0.795947 4.57143 1.77778 4.57143H30.2222C31.2041 4.57143 32 3.54807 32 2.28571C32 1.02336 31.2041 0 30.2222 0H1.77778ZM7.11111 16C7.11111 14.7376 7.90706 13.7143 8.88889 13.7143H30.2222C31.2041 13.7143 32 14.7376 32 16C32 17.2624 31.2041 18.2857 30.2222 18.2857H8.88889C7.90706 18.2857 7.11111 17.2624 7.11111 16ZM17.7778 29.7143C17.7778 28.4519 18.5737 27.4286 19.5556 27.4286H30.2222C31.2041 27.4286 32 28.4519 32 29.7143C32 30.9767 31.2041 32 30.2222 32H19.5556C18.5737 32 17.7778 30.9767 17.7778 29.7143Z" fill="white"/>
</svg>