<svg width="33" height="32" viewBox="0 0 33 32" fill="none" xmlns="http://www.w3.org/2000/svg">
<g clip-path="url(#clip0_34_568)">
<path d="M16.095 32C24.9315 32 32.095 24.8366 32.095 16C32.095 7.16344 24.9315 0 16.095 0C7.25841 0 0.0949707 7.16344 0.0949707 16C0.0949707 24.8366 7.25841 32 16.095 32Z" fill="#F3BA2F"/>
<path d="M12.211 14.404L16.095 10.52L19.981 14.406L22.241 12.146L16.095 6L9.95097 12.144L12.211 14.404ZM6.09497 16L8.35497 13.74L10.615 16L8.35497 18.26L6.09497 16ZM12.211 17.596L16.095 21.48L19.981 17.594L22.241 19.853L16.095 26L9.95097 19.856L9.94797 19.853L12.211 17.596ZM21.575 16L23.835 13.74L26.095 16L23.835 18.26L21.575 16ZM18.387 15.998H18.389V16L16.095 18.294L13.804 16.004L13.8 16L13.804 15.997L14.205 15.595L14.4 15.4L16.095 13.706L18.388 15.999L18.387 15.998Z" fill="white"/>
</g>
<defs>
<clipPath id="clip0_34_568">
<rect width="32" height="32" fill="white" transform="translate(0.0949707)"/>
</clipPath>
</defs>
</svg>
